<svg width="18" height="18" viewBox="0 0 18 18" fill="none" xmlns="http://www.w3.org/2000/svg">
<path d="M11.9756 5.77415C11.4883 2.77348 10.3392 0.666626 9.00179 0.666626C7.66442 0.666626 6.51523 2.77348 6.028 5.77415H11.9756ZM5.77598 8.99996C5.77598 9.74593 5.81631 10.4617 5.88687 11.1505H12.1133C12.1839 10.4617 12.2242 9.74593 12.2242 8.99996C12.2242 8.25399 12.1839 7.53827 12.1133 6.84942H5.88687C5.81631 7.53827 5.77598 8.25399 5.77598 8.99996ZM16.6866 5.77415C15.7256 3.49257 13.78 1.72845 11.3775 1.01609C12.1974 2.15184 12.7619 3.86219 13.0576 5.77415H16.6866ZM6.62276 1.01609C4.22356 1.72845 2.27464 3.49257 1.31698 5.77415H4.94601C5.23835 3.86219 5.80287 2.15184 6.62276 1.01609ZM17.0461 6.84942H13.192C13.2625 7.55507 13.3029 8.27751 13.3029 8.99996C13.3029 9.72241 13.2625 10.4449 13.192 11.1505H17.0428C17.2276 10.4617 17.3318 9.74593 17.3318 8.99996C17.3318 8.25399 17.2276 7.53827 17.0461 6.84942ZM4.70072 8.99996C4.70072 8.27751 4.74104 7.55507 4.8116 6.84942H0.957436C0.775984 7.53827 0.668457 8.25399 0.668457 8.99996C0.668457 9.74593 0.775984 10.4617 0.957436 11.1505H4.80824C4.74104 10.4449 4.70072 9.72241 4.70072 8.99996ZM6.028 12.2258C6.51523 15.2264 7.66442 17.3333 9.00179 17.3333C10.3392 17.3333 11.4883 15.2264 11.9756 12.2258H6.028ZM11.3808 16.9838C13.78 16.2715 15.7289 14.5074 16.69 12.2258H13.0609C12.7652 14.1377 12.2007 15.8481 11.3808 16.9838ZM1.31698 12.2258C2.278 14.5074 4.22356 16.2715 6.62612 16.9838C5.80623 15.8481 5.24171 14.1377 4.94601 12.2258H1.31698Z" fill="#D0D5DD"/>
</svg>
